<svg width="900" height="300" viewBox="0 0 900 300" xmlns="http://www.w3.org/2000/svg" role="img" aria-labelledby="logoTitle">
  <title id="logoTitle">AusNZ Postcodes</title>
  <defs>
    <linearGradient id="pinGradient" x1="0" y1="0" x2="1" y2="1">
      <stop offset="0%" stop-color="#0066CC"/>
      <stop offset="100%" stop-color="#00A86B"/>
    </linearGradient>
    <linearGradient id="textGradient" x1="0" y1="0" x2="1" y2="0">
      <stop offset="0%" stop-color="#003B8F"/>
      <stop offset="100%" stop-color="#00A86B"/>
    </linearGradient>
  </defs>
  <path d="M160 25 C90 25 45 78 45 140 C45 215 160 285 160 285 C160 285 275 215 275 140 C275 78 230 25 160 25Z" fill="url(#pinGradient)"/>
  <circle cx="160" cy="135" r="78" fill="white"/>
  <path d="M95 125 L115 112 L145 115 L165 105 L190 120 L205 145 L190 165 L155 172 L130 165 L105 155 Z" fill="#0066CC"/>
  <path d="M158 183 L173 190 L164 202 L150 195 Z" fill="#0066CC"/>
  <path d="M220 122 C238 135 242 158 226 172 C215 160 207 142 220 122Z" fill="#009688"/>
  <path d="M202 168 C220 182 218 210 195 225 C185 205 188 184 202 168Z" fill="#009688"/>
  <text x="340" y="135" font-family="Inter, Arial, sans-serif" font-size="82" font-weight="800" fill="url(#textGradient)">AUSNZ</text>
  <text x="345" y="205" font-family="Inter, Arial, sans-serif" font-size="42" font-weight="700" letter-spacing="16" fill="#334155">POSTCODES</text>
</svg>
